# MagicaVoxel @ Ephtracy

# group
o 

# material
mtllib Bandage.mtl
usemtl palette

# normals
vn -1 0 0
vn 1 0 0
vn 0 0 1
vn 0 0 -1
vn 0 -1 0
vn 0 1 0

# texcoords
vt 0.00195313 0.5
vt 0.857422 0.5
vt 0.861328 0.5
vt 0.970703 0.5

# verts
v -1 0 1.3
v -1 0 1.2
v -1 0.6 1.3
v -1 0.6 1.2
v -0.9 0 1.4
v -0.9 0 1.3
v -0.9 0.1 1.4
v -0.9 0.1 1.3
v -0.9 0.2 1.4
v -0.9 0.2 1.3
v -0.9 0.3 1.4
v -0.9 0.3 1.3
v -0.9 0.4 1.4
v -0.9 0.4 1.3
v -0.9 0.5 1.4
v -0.9 0.5 1.3
v -0.9 0.6 1.4
v -0.9 0.6 1.3
v -0.9 0.7 1.4
v -0.9 0.7 1.3
v -0.6 0 1.4
v -0.6 0 1.3
v -0.6 0.1 1.4
v -0.6 0.1 1.3
v -0.6 0.2 1.4
v -0.6 0.2 1.3
v -0.6 0.3 1.4
v -0.6 0.3 1.3
v -0.6 0.4 1.4
v -0.6 0.4 1.3
v -0.6 0.5 1.4
v -0.6 0.5 1.3
v -0.6 0.6 1.4
v -0.6 0.6 1.3
v -0.6 0.7 1.4
v -0.6 0.7 1.3
v -0.5 0 1.3
v -0.5 0 1.2
v -0.5 0.6 1.3
v -0.5 0.6 1.2
v -0.9 0 1.4
v -0.9 0.1 1.4
v -0.9 0.2 1.4
v -0.9 0.3 1.4
v -0.9 0.4 1.4
v -0.9 0.5 1.4
v -0.9 0.6 1.4
v -0.9 0.7 1.4
v -0.8 0.2 1.4
v -0.8 0.3 1.4
v -0.8 0.4 1.4
v -0.8 0.5 1.4
v -0.7 0.2 1.4
v -0.7 0.3 1.4
v -0.7 0.4 1.4
v -0.7 0.5 1.4
v -0.6 0 1.4
v -0.6 0.1 1.4
v -0.6 0.2 1.4
v -0.6 0.3 1.4
v -0.6 0.4 1.4
v -0.6 0.5 1.4
v -0.6 0.6 1.4
v -0.6 0.7 1.4
v -1 0 1.3
v -1 0.6 1.3
v -0.9 0 1.3
v -0.9 0.1 1.3
v -0.9 0.2 1.3
v -0.9 0.3 1.3
v -0.9 0.4 1.3
v -0.9 0.5 1.3
v -0.9 0.6 1.3
v -0.6 0 1.3
v -0.6 0.1 1.3
v -0.6 0.2 1.3
v -0.6 0.3 1.3
v -0.6 0.4 1.3
v -0.6 0.5 1.3
v -0.6 0.6 1.3
v -0.5 0 1.3
v -0.5 0.6 1.3
v -0.9 0.6 1.3
v -0.9 0.7 1.3
v -0.6 0.6 1.3
v -0.6 0.7 1.3
v -1 0 1.2
v -1 0.6 1.2
v -0.9 0 1.2
v -0.9 0.6 1.2
v -0.6 0 1.2
v -0.6 0.6 1.2
v -0.5 0 1.2
v -0.5 0.6 1.2
v -0.9 0 1.4
v -0.6 0 1.4
v -1 0 1.3
v -0.9 0 1.3
v -0.6 0 1.3
v -0.5 0 1.3
v -1 0 1.2
v -0.9 0 1.2
v -0.6 0 1.2
v -0.5 0 1.2
v -1 0.6 1.3
v -0.9 0.6 1.3
v -0.6 0.6 1.3
v -0.5 0.6 1.3
v -1 0.6 1.2
v -0.9 0.6 1.2
v -0.6 0.6 1.2
v -0.5 0.6 1.2
v -0.9 0.7 1.4
v -0.6 0.7 1.4
v -0.9 0.7 1.3
v -0.6 0.7 1.3

# faces
f 3/4/1 2/4/1 1/4/1
f 4/4/1 2/4/1 3/4/1
f 7/1/1 6/1/1 5/1/1
f 8/1/1 6/1/1 7/1/1
f 9/3/1 8/3/1 7/3/1
f 10/3/1 8/3/1 9/3/1
f 11/2/1 10/2/1 9/2/1
f 12/2/1 10/2/1 11/2/1
f 13/1/1 12/1/1 11/1/1
f 14/1/1 12/1/1 13/1/1
f 15/2/1 14/2/1 13/2/1
f 16/2/1 14/2/1 15/2/1
f 17/3/1 16/3/1 15/3/1
f 18/3/1 16/3/1 17/3/1
f 19/1/1 18/1/1 17/1/1
f 20/1/1 18/1/1 19/1/1
f 21/1/2 22/1/2 23/1/2
f 23/1/2 22/1/2 24/1/2
f 23/3/2 24/3/2 25/3/2
f 25/3/2 24/3/2 26/3/2
f 25/2/2 26/2/2 27/2/2
f 27/2/2 26/2/2 28/2/2
f 27/1/2 28/1/2 29/1/2
f 29/1/2 28/1/2 30/1/2
f 29/2/2 30/2/2 31/2/2
f 31/2/2 30/2/2 32/2/2
f 31/3/2 32/3/2 33/3/2
f 33/3/2 32/3/2 34/3/2
f 33/1/2 34/1/2 35/1/2
f 35/1/2 34/1/2 36/1/2
f 37/4/2 38/4/2 39/4/2
f 39/4/2 38/4/2 40/4/2
f 49/3/3 43/3/3 42/3/3
f 49/2/3 44/2/3 43/2/3
f 50/1/3 45/1/3 44/1/3
f 50/2/3 44/2/3 49/2/3
f 51/2/3 46/2/3 45/2/3
f 51/1/3 45/1/3 50/1/3
f 52/3/3 47/3/3 46/3/3
f 52/2/3 46/2/3 51/2/3
f 53/1/3 51/1/3 50/1/3
f 53/3/3 49/3/3 42/3/3
f 53/1/3 52/1/3 51/1/3
f 53/1/3 50/1/3 49/1/3
f 54/1/3 52/1/3 53/1/3
f 55/1/3 52/1/3 54/1/3
f 56/3/3 47/3/3 52/3/3
f 56/1/3 52/1/3 55/1/3
f 57/1/3 42/1/3 41/1/3
f 58/3/3 53/3/3 42/3/3
f 58/1/3 42/1/3 57/1/3
f 59/2/3 54/2/3 53/2/3
f 59/3/3 53/3/3 58/3/3
f 60/1/3 55/1/3 54/1/3
f 60/2/3 54/2/3 59/2/3
f 61/2/3 56/2/3 55/2/3
f 61/1/3 55/1/3 60/1/3
f 62/3/3 47/3/3 56/3/3
f 62/2/3 56/2/3 61/2/3
f 63/1/3 48/1/3 47/1/3
f 63/3/3 47/3/3 62/3/3
f 64/1/3 48/1/3 63/1/3
f 67/4/3 66/4/3 65/4/3
f 68/4/3 66/4/3 67/4/3
f 69/4/3 66/4/3 68/4/3
f 70/4/3 66/4/3 69/4/3
f 71/4/3 66/4/3 70/4/3
f 72/4/3 66/4/3 71/4/3
f 73/4/3 66/4/3 72/4/3
f 81/4/3 75/4/3 74/4/3
f 81/4/3 80/4/3 79/4/3
f 81/4/3 79/4/3 78/4/3
f 81/4/3 78/4/3 77/4/3
f 81/4/3 77/4/3 76/4/3
f 81/4/3 76/4/3 75/4/3
f 82/4/3 80/4/3 81/4/3
f 83/1/4 84/1/4 85/1/4
f 85/1/4 84/1/4 86/1/4
f 87/4/4 88/4/4 89/4/4
f 89/4/4 88/4/4 90/4/4
f 89/1/4 90/1/4 91/1/4
f 91/1/4 90/1/4 92/1/4
f 91/4/4 92/4/4 93/4/4
f 93/4/4 92/4/4 94/4/4
f 98/1/5 96/1/5 95/1/5
f 99/1/5 96/1/5 98/1/5
f 101/4/5 98/4/5 97/4/5
f 102/1/5 99/1/5 98/1/5
f 102/4/5 98/4/5 101/4/5
f 103/4/5 100/4/5 99/4/5
f 103/1/5 99/1/5 102/1/5
f 104/4/5 100/4/5 103/4/5
f 105/4/6 106/4/6 109/4/6
f 106/1/6 107/1/6 110/1/6
f 109/4/6 106/4/6 110/4/6
f 107/4/6 108/4/6 111/4/6
f 110/1/6 107/1/6 111/1/6
f 111/4/6 108/4/6 112/4/6
f 113/1/6 114/1/6 115/1/6
f 115/1/6 114/1/6 116/1/6
