# MagicaVoxel @ Ephtracy

# group
o 

# material
mtllib cashouTill-cashregisters.mtl
usemtl palette

# normals
vn -1 0 0
vn 1 0 0
vn 0 0 1
vn 0 0 -1
vn 0 -1 0
vn 0 1 0

# texcoords
vt 0.775391 0.5
vt 0.798828 0.5
vt 0.912109 0.5
vt 0.974609 0.5
vt 0.990234 0.5

# verts
v -2.6 3.9 2.8
v -2.6 3.9 -0.3
v -2.6 4 2.8
v -2.6 4 -0.3
v -2.6 4.1 2.9
v -2.6 4.1 -0.2
v -2.6 4.3 2.9
v -2.6 4.3 -0.2
v -2.5 2.6 2.7
v -2.5 2.6 -0.4
v -2.5 2.7 -0.4
v -2.5 2.7 -0.5
v -2.5 2.8 2.7
v -2.5 2.8 -0.5
v -2.5 4 2.8
v -2.5 4 -0.2
v -2.5 4.1 2.8
v -2.5 4.1 -0.2
v -2.3 2.8 2.6
v -2.3 2.8 -0.2
v -2.3 3.9 2.6
v -2.3 3.9 -0.1
v -2.3 3.9 -0.2
v 0.8 2.6 -0.3
v 0.8 2.6 -0.4
v 0.8 2.7 -0.3
v 0.8 2.7 -0.4
v 1 2.7 -0.3
v 1 2.7 -0.4
v 1 2.8 -0.3
v 1 2.8 -0.4
v 1.1 2.6 -0.3
v 1.1 2.6 -0.4
v 1.1 2.7 -0.3
v 1.1 2.7 -0.4
v 1.2 2.6 -0.2
v 1.2 2.6 -0.3
v 1.2 2.7 -0.2
v 1.2 2.7 -0.3
v 1.3 2.7 -0.4
v 1.3 2.7 -0.5
v 1.3 2.8 -0.4
v 1.3 2.8 -0.5
v 2.9 3.1 2.6
v 2.9 3.1 2.4
v 2.9 3.5 2.6
v 2.9 3.5 2.4
v 3.1 3.1 2.6
v 3.1 3.1 2.4
v 3.1 3.5 2.6
v 3.1 3.5 2.4
v 3.4 3.1 2.6
v 3.4 3.1 2.4
v 3.4 3.5 2.6
v 3.4 3.5 2.4
v 3.7 3.1 2.6
v 3.7 3.1 2.4
v 3.7 3.5 2.6
v 3.7 3.5 2.4
v 4.1 4.1 2.7
v 4.1 4.1 -0.1
v 4.1 4.2 2.9
v 4.1 4.2 2.7
v 4.1 4.3 2.9
v 4.1 4.3 -0.1
v -2.3 4.1 2.7
v -2.3 4.1 -0.1
v -2.3 4.2 2.9
v -2.3 4.2 2.7
v -2.3 4.3 2.9
v -2.3 4.3 -0.1
v 0 2.7 -0.4
v 0 2.7 -0.5
v 0 2.8 -0.4
v 0 2.8 -0.5
v 0.0999999 2.6 -0.3
v 0.0999999 2.6 -0.4
v 0.0999999 2.8 -0.3
v 0.0999999 2.8 -0.4
v 1 2.6 -0.2
v 1 2.6 -0.4
v 1 2.7 -0.2
v 1 2.7 -0.4
v 2.8 3.1 2.6
v 2.8 3.1 2.4
v 2.8 3.5 2.6
v 2.8 3.5 2.4
v 3 3.1 2.6
v 3 3.1 2.4
v 3 3.5 2.6
v 3 3.5 2.4
v 3.3 3.1 2.6
v 3.3 3.1 2.4
v 3.3 3.5 2.6
v 3.3 3.5 2.4
v 3.6 3.1 2.6
v 3.6 3.1 2.4
v 3.6 3.5 2.6
v 3.6 3.5 2.4
v 3.9 2.8 2.6
v 3.9 2.8 -0.2
v 3.9 3.9 2.6
v 3.9 3.9 -0.1
v 3.9 3.9 -0.2
v 4.1 2.6 2.7
v 4.1 2.6 -0.4
v 4.1 2.7 -0.4
v 4.1 2.7 -0.5
v 4.1 2.8 2.7
v 4.1 2.8 -0.5
v 4.2 4 2.8
v 4.2 4 -0.2
v 4.2 4.1 2.8
v 4.2 4.1 -0.2
v 4.2 4.2 -0.1
v 4.2 4.2 -0.2
v 4.2 4.3 -0.1
v 4.2 4.3 -0.2
v 4.3 3.9 2.8
v 4.3 3.9 -0.3
v 4.3 4 2.8
v 4.3 4 -0.3
v 4.3 4.1 2.9
v 4.3 4.1 -0.2
v 4.3 4.2 -0.1
v 4.3 4.2 -0.2
v 4.3 4.3 2.9
v 4.3 4.3 -0.1
v -2.6 4.1 2.9
v -2.6 4.3 2.9
v -2.3 4.2 2.9
v -2.3 4.3 2.9
v 4.1 4.2 2.9
v 4.1 4.3 2.9
v 4.3 4.1 2.9
v 4.3 4.3 2.9
v -2.6 3.9 2.8
v -2.6 4 2.8
v -2.5 4 2.8
v -2.5 4.1 2.8
v 4.2 4 2.8
v 4.2 4.1 2.8
v 4.3 3.9 2.8
v 4.3 4 2.8
v -2.5 2.6 2.7
v -2.5 2.8 2.7
v 4.1 2.6 2.7
v 4.1 2.8 2.7
v -2.3 2.8 2.6
v -2.3 3.9 2.6
v 2.8 3.1 2.6
v 2.8 3.5 2.6
v 2.9 3.1 2.6
v 2.9 3.5 2.6
v 3 3.1 2.6
v 3 3.5 2.6
v 3.1 3.1 2.6
v 3.1 3.5 2.6
v 3.3 3.1 2.6
v 3.3 3.5 2.6
v 3.4 3.1 2.6
v 3.4 3.5 2.6
v 3.6 3.1 2.6
v 3.6 3.5 2.6
v 3.7 3.1 2.6
v 3.7 3.5 2.6
v 3.9 2.8 2.6
v 3.9 3.9 2.6
v 2.8 3.1 2.4
v 2.8 3.5 2.4
v 2.9 3.1 2.4
v 2.9 3.5 2.4
v 3 3.1 2.4
v 3 3.5 2.4
v 3.1 3.1 2.4
v 3.1 3.5 2.4
v 3.3 3.1 2.4
v 3.3 3.5 2.4
v 3.4 3.1 2.4
v 3.4 3.5 2.4
v 3.6 3.1 2.4
v 3.6 3.5 2.4
v 3.7 3.1 2.4
v 3.7 3.5 2.4
v -2.3 4.1 -0.1
v -2.3 4.3 -0.1
v 4.1 4.1 -0.1
v 4.1 4.3 -0.1
v 1.1 2.6 -0.3
v 1.1 2.7 -0.3
v 1.2 2.6 -0.3
v 1.2 2.7 -0.3
v -2.3 4.1 2.7
v -2.3 4.2 2.7
v 4.1 4.1 2.7
v 4.1 4.2 2.7
v 4.2 4.2 -0.1
v 4.2 4.3 -0.1
v 4.3 4.2 -0.1
v 4.3 4.3 -0.1
v -2.6 4.1 -0.2
v -2.6 4.3 -0.2
v -2.5 4 -0.2
v -2.5 4.1 -0.2
v -2.3 2.8 -0.2
v -2.3 3.9 -0.2
v 1 2.6 -0.2
v 1 2.7 -0.2
v 1.2 2.6 -0.2
v 1.2 2.7 -0.2
v 3.9 2.8 -0.2
v 3.9 3.9 -0.2
v 4.2 4 -0.2
v 4.2 4.1 -0.2
v 4.2 4.2 -0.2
v 4.2 4.3 -0.2
v 4.3 4.1 -0.2
v 4.3 4.2 -0.2
v -2.6 3.9 -0.3
v -2.6 4 -0.3
v 0.0999999 2.6 -0.3
v 0.0999999 2.8 -0.3
v 0.8 2.6 -0.3
v 0.8 2.7 -0.3
v 1 2.7 -0.3
v 1 2.8 -0.3
v 4.3 3.9 -0.3
v 4.3 4 -0.3
v -2.5 2.6 -0.4
v -2.5 2.7 -0.4
v 0 2.7 -0.4
v 0 2.8 -0.4
v 0.0999999 2.6 -0.4
v 0.0999999 2.8 -0.4
v 0.8 2.6 -0.4
v 0.8 2.7 -0.4
v 1 2.6 -0.4
v 1 2.7 -0.4
v 1 2.8 -0.4
v 1.1 2.6 -0.4
v 1.1 2.7 -0.4
v 1.3 2.7 -0.4
v 1.3 2.8 -0.4
v 4.1 2.6 -0.4
v 4.1 2.7 -0.4
v -2.5 2.7 -0.5
v -2.5 2.8 -0.5
v 0 2.7 -0.5
v 0 2.8 -0.5
v 1.3 2.7 -0.5
v 1.3 2.8 -0.5
v 4.1 2.7 -0.5
v 4.1 2.8 -0.5
v -2.5 2.6 2.7
v 4.1 2.6 2.7
v 1 2.6 -0.2
v 1.2 2.6 -0.2
v 0.0999999 2.6 -0.3
v 0.8 2.6 -0.3
v 1.1 2.6 -0.3
v 1.2 2.6 -0.3
v -2.5 2.6 -0.4
v 0.0999999 2.6 -0.4
v 0.8 2.6 -0.4
v 1 2.6 -0.4
v 1.1 2.6 -0.4
v 4.1 2.6 -0.4
v 1 2.7 -0.2
v 1.2 2.7 -0.2
v 1.1 2.7 -0.3
v 1.2 2.7 -0.3
v -2.5 2.7 -0.4
v 0 2.7 -0.4
v 1 2.7 -0.4
v 1.1 2.7 -0.4
v 1.3 2.7 -0.4
v 4.1 2.7 -0.4
v -2.5 2.7 -0.5
v 0 2.7 -0.5
v 1.3 2.7 -0.5
v 4.1 2.7 -0.5
v 2.8 3.5 2.6
v 2.9 3.5 2.6
v 3 3.5 2.6
v 3.1 3.5 2.6
v 3.3 3.5 2.6
v 3.4 3.5 2.6
v 3.6 3.5 2.6
v 3.7 3.5 2.6
v 2.8 3.5 2.4
v 2.9 3.5 2.4
v 3 3.5 2.4
v 3.1 3.5 2.4
v 3.3 3.5 2.4
v 3.4 3.5 2.4
v 3.6 3.5 2.4
v 3.7 3.5 2.4
v -2.6 3.9 2.8
v 4.3 3.9 2.8
v -2.5 3.9 2.7
v 4.1 3.9 2.7
v 4.2 3.9 2.7
v -2.3 3.9 2.6
v 3.9 3.9 2.6
v -2.5 3.9 -0.1
v -2.3 3.9 -0.1
v 3.9 3.9 -0.1
v 4.1 3.9 -0.1
v -2.5 3.9 -0.2
v -2.3 3.9 -0.2
v 3.9 3.9 -0.2
v 4.2 3.9 -0.2
v -2.6 3.9 -0.3
v 4.3 3.9 -0.3
v -2.6 4.1 2.9
v 4.3 4.1 2.9
v -2.5 4.1 2.8
v 4.2 4.1 2.8
v -2.6 4.1 -0.2
v -2.5 4.1 -0.2
v 4.2 4.1 -0.2
v 4.3 4.1 -0.2
v 0.8 2.7 -0.3
v 1 2.7 -0.3
v 0.8 2.7 -0.4
v 1 2.7 -0.4
v -2.5 2.8 2.7
v 4.1 2.8 2.7
v -2.3 2.8 2.6
v 3.9 2.8 2.6
v -2.3 2.8 -0.2
v 3.9 2.8 -0.2
v 0.0999999 2.8 -0.3
v 1 2.8 -0.3
v 0 2.8 -0.4
v 0.0999999 2.8 -0.4
v 1 2.8 -0.4
v 1.3 2.8 -0.4
v -2.5 2.8 -0.5
v 0 2.8 -0.5
v 1.3 2.8 -0.5
v 4.1 2.8 -0.5
v 2.8 3.1 2.6
v 2.9 3.1 2.6
v 3 3.1 2.6
v 3.1 3.1 2.6
v 3.3 3.1 2.6
v 3.4 3.1 2.6
v 3.6 3.1 2.6
v 3.7 3.1 2.6
v 2.8 3.1 2.4
v 2.9 3.1 2.4
v 3 3.1 2.4
v 3.1 3.1 2.4
v 3.3 3.1 2.4
v 3.4 3.1 2.4
v 3.6 3.1 2.4
v 3.7 3.1 2.4
v -2.6 4 2.8
v -2.5 4 2.8
v 4.2 4 2.8
v 4.3 4 2.8
v -2.5 4 -0.2
v 4.2 4 -0.2
v -2.6 4 -0.3
v 4.3 4 -0.3
v -2.3 4.1 2.7
v 4.1 4.1 2.7
v -2.3 4.1 -0.1
v 4.1 4.1 -0.1
v -2.3 4.2 2.9
v 4.1 4.2 2.9
v -2.3 4.2 2.7
v 4.1 4.2 2.7
v 4.2 4.2 -0.1
v 4.3 4.2 -0.1
v 4.2 4.2 -0.2
v 4.3 4.2 -0.2
v -2.6 4.3 2.9
v -2.3 4.3 2.9
v 4.1 4.3 2.9
v 4.3 4.3 2.9
v -2.3 4.3 -0.1
v 4.1 4.3 -0.1
v 4.2 4.3 -0.1
v 4.3 4.3 -0.1
v -2.6 4.3 -0.2
v 4.2 4.3 -0.2

# faces
f 3/2/1 2/2/1 1/2/1
f 4/2/1 2/2/1 3/2/1
f 7/2/1 6/2/1 5/2/1
f 8/2/1 6/2/1 7/2/1
f 11/2/1 10/2/1 9/2/1
f 13/2/1 11/2/1 9/2/1
f 13/2/1 12/2/1 11/2/1
f 14/2/1 12/2/1 13/2/1
f 17/3/1 16/3/1 15/3/1
f 18/3/1 16/3/1 17/3/1
f 21/3/1 20/3/1 19/3/1
f 22/3/1 20/3/1 21/3/1
f 23/3/1 20/3/1 22/3/1
f 26/2/1 25/2/1 24/2/1
f 27/2/1 25/2/1 26/2/1
f 30/2/1 29/2/1 28/2/1
f 31/2/1 29/2/1 30/2/1
f 34/2/1 33/2/1 32/2/1
f 35/2/1 33/2/1 34/2/1
f 38/2/1 37/2/1 36/2/1
f 39/2/1 37/2/1 38/2/1
f 42/2/1 41/2/1 40/2/1
f 43/2/1 41/2/1 42/2/1
f 46/3/1 45/3/1 44/3/1
f 47/3/1 45/3/1 46/3/1
f 50/3/1 49/3/1 48/3/1
f 51/3/1 49/3/1 50/3/1
f 54/3/1 53/3/1 52/3/1
f 55/3/1 53/3/1 54/3/1
f 58/3/1 57/3/1 56/3/1
f 59/3/1 57/3/1 58/3/1
f 63/2/1 61/2/1 60/2/1
f 64/2/1 63/2/1 62/2/1
f 65/2/1 61/2/1 63/2/1
f 65/2/1 63/2/1 64/2/1
f 66/2/2 67/2/2 69/2/2
f 68/2/2 69/2/2 70/2/2
f 69/2/2 67/2/2 71/2/2
f 70/2/2 69/2/2 71/2/2
f 72/2/2 73/2/2 74/2/2
f 74/2/2 73/2/2 75/2/2
f 76/2/2 77/2/2 78/2/2
f 78/2/2 77/2/2 79/2/2
f 80/2/2 81/2/2 82/2/2
f 82/2/2 81/2/2 83/2/2
f 84/3/2 85/3/2 86/3/2
f 86/3/2 85/3/2 87/3/2
f 88/3/2 89/3/2 90/3/2
f 90/3/2 89/3/2 91/3/2
f 92/3/2 93/3/2 94/3/2
f 94/3/2 93/3/2 95/3/2
f 96/3/2 97/3/2 98/3/2
f 98/3/2 97/3/2 99/3/2
f 100/3/2 101/3/2 102/3/2
f 102/3/2 101/3/2 103/3/2
f 103/3/2 101/3/2 104/3/2
f 105/2/2 106/2/2 107/2/2
f 105/2/2 107/2/2 109/2/2
f 107/2/2 108/2/2 109/2/2
f 109/2/2 108/2/2 110/2/2
f 111/3/2 112/3/2 113/3/2
f 113/3/2 112/3/2 114/3/2
f 115/2/2 116/2/2 117/2/2
f 117/2/2 116/2/2 118/2/2
f 119/2/2 120/2/2 121/2/2
f 121/2/2 120/2/2 122/2/2
f 123/2/2 124/2/2 125/2/2
f 125/2/2 124/2/2 126/2/2
f 123/2/2 125/2/2 127/2/2
f 127/2/2 125/2/2 128/2/2
f 131/2/3 130/2/3 129/2/3
f 132/2/3 130/2/3 131/2/3
f 133/2/3 131/2/3 129/2/3
f 135/2/3 133/2/3 129/2/3
f 135/2/3 134/2/3 133/2/3
f 136/2/3 134/2/3 135/2/3
f 139/2/3 138/2/3 137/2/3
f 141/2/3 139/2/3 137/2/3
f 141/3/3 140/3/3 139/3/3
f 142/3/3 140/3/3 141/3/3
f 143/2/3 141/2/3 137/2/3
f 144/2/3 141/2/3 143/2/3
f 147/2/3 146/2/3 145/2/3
f 148/2/3 146/2/3 147/2/3
f 151/3/3 150/3/3 149/3/3
f 152/3/3 150/3/3 151/3/3
f 153/3/3 151/3/3 149/3/3
f 154/3/3 150/3/3 152/3/3
f 155/3/3 153/3/3 149/3/3
f 155/3/3 154/3/3 153/3/3
f 156/3/3 150/3/3 154/3/3
f 156/3/3 154/3/3 155/3/3
f 157/3/3 155/3/3 149/3/3
f 158/3/3 150/3/3 156/3/3
f 159/3/3 157/3/3 149/3/3
f 159/3/3 158/3/3 157/3/3
f 160/3/3 150/3/3 158/3/3
f 160/3/3 158/3/3 159/3/3
f 161/3/3 159/3/3 149/3/3
f 162/3/3 150/3/3 160/3/3
f 163/3/3 161/3/3 149/3/3
f 163/3/3 162/3/3 161/3/3
f 164/3/3 150/3/3 162/3/3
f 164/3/3 162/3/3 163/3/3
f 165/3/3 163/3/3 149/3/3
f 166/3/3 150/3/3 164/3/3
f 167/3/3 165/3/3 149/3/3
f 167/3/3 166/3/3 165/3/3
f 168/3/3 150/3/3 166/3/3
f 168/3/3 166/3/3 167/3/3
f 171/5/3 170/5/3 169/5/3
f 172/5/3 170/5/3 171/5/3
f 175/5/3 174/5/3 173/5/3
f 176/5/3 174/5/3 175/5/3
f 179/5/3 178/5/3 177/5/3
f 180/5/3 178/5/3 179/5/3
f 183/5/3 182/5/3 181/5/3
f 184/5/3 182/5/3 183/5/3
f 187/2/3 186/2/3 185/2/3
f 188/2/3 186/2/3 187/2/3
f 191/2/3 190/2/3 189/2/3
f 192/2/3 190/2/3 191/2/3
f 193/2/4 194/2/4 195/2/4
f 195/2/4 194/2/4 196/2/4
f 197/2/4 198/2/4 199/2/4
f 199/2/4 198/2/4 200/2/4
f 201/2/4 202/2/4 204/2/4
f 207/2/4 208/2/4 209/2/4
f 209/2/4 208/2/4 210/2/4
f 205/3/4 206/3/4 211/3/4
f 211/3/4 206/3/4 212/3/4
f 203/3/4 204/3/4 213/3/4
f 204/2/4 202/2/4 214/2/4
f 213/3/4 204/3/4 214/3/4
f 214/2/4 202/2/4 215/2/4
f 215/2/4 202/2/4 216/2/4
f 214/2/4 215/2/4 217/2/4
f 217/2/4 215/2/4 218/2/4
f 221/2/4 222/2/4 223/2/4
f 223/2/4 222/2/4 224/2/4
f 224/2/4 222/2/4 225/2/4
f 225/2/4 222/2/4 226/2/4
f 219/2/4 220/2/4 227/2/4
f 227/2/4 220/2/4 228/2/4
f 229/2/4 230/2/4 231/2/4
f 229/2/4 231/2/4 233/2/4
f 231/2/4 232/2/4 233/2/4
f 233/2/4 232/2/4 234/2/4
f 235/2/4 236/2/4 237/2/4
f 237/2/4 236/2/4 238/2/4
f 238/2/4 239/2/4 241/2/4
f 241/2/4 239/2/4 242/2/4
f 240/2/4 241/2/4 242/2/4
f 242/2/4 239/2/4 243/2/4
f 240/2/4 242/2/4 244/2/4
f 244/2/4 242/2/4 245/2/4
f 246/2/4 247/2/4 248/2/4
f 248/2/4 247/2/4 249/2/4
f 250/2/4 251/2/4 252/2/4
f 252/2/4 251/2/4 253/2/4
f 256/2/5 255/2/5 254/2/5
f 257/2/5 255/2/5 256/2/5
f 258/2/5 256/2/5 254/2/5
f 259/2/5 256/2/5 258/2/5
f 261/2/5 255/2/5 257/2/5
f 262/2/5 258/2/5 254/2/5
f 263/2/5 258/2/5 262/2/5
f 264/2/5 256/2/5 259/2/5
f 265/2/5 256/2/5 264/2/5
f 266/2/5 261/2/5 260/2/5
f 267/2/5 255/2/5 261/2/5
f 267/2/5 261/2/5 266/2/5
f 270/2/5 269/2/5 268/2/5
f 271/2/5 269/2/5 270/2/5
f 274/2/5 270/2/5 268/2/5
f 275/2/5 270/2/5 274/2/5
f 278/2/5 273/2/5 272/2/5
f 279/2/5 273/2/5 278/2/5
f 280/2/5 277/2/5 276/2/5
f 281/2/5 277/2/5 280/2/5
f 290/3/5 283/3/5 282/3/5
f 291/3/5 283/3/5 290/3/5
f 292/3/5 285/3/5 284/3/5
f 293/3/5 285/3/5 292/3/5
f 294/3/5 287/3/5 286/3/5
f 295/3/5 287/3/5 294/3/5
f 296/3/5 289/3/5 288/3/5
f 297/3/5 289/3/5 296/3/5
f 300/2/5 299/2/5 298/2/5
f 301/2/5 299/2/5 300/2/5
f 302/2/5 299/2/5 301/2/5
f 303/3/5 301/3/5 300/3/5
f 304/3/5 301/3/5 303/3/5
f 305/2/5 300/2/5 298/2/5
f 305/3/5 303/3/5 300/3/5
f 306/3/5 303/3/5 305/3/5
f 307/3/5 301/3/5 304/3/5
f 308/1/5 302/1/5 301/1/5
f 308/3/5 301/3/5 307/3/5
f 309/1/5 306/1/5 305/1/5
f 309/2/5 305/2/5 298/2/5
f 310/1/5 306/1/5 309/1/5
f 311/1/5 308/1/5 307/1/5
f 312/1/5 302/1/5 308/1/5
f 312/2/5 299/2/5 302/2/5
f 312/1/5 308/1/5 311/1/5
f 313/2/5 311/2/5 310/2/5
f 313/2/5 310/2/5 309/2/5
f 313/2/5 312/2/5 311/2/5
f 313/2/5 309/2/5 298/2/5
f 314/2/5 299/2/5 312/2/5
f 314/2/5 312/2/5 313/2/5
f 317/2/5 316/2/5 315/2/5
f 318/2/5 316/2/5 317/2/5
f 319/2/5 317/2/5 315/2/5
f 320/2/5 317/2/5 319/2/5
f 321/2/5 316/2/5 318/2/5
f 322/2/5 316/2/5 321/2/5
f 323/2/6 324/2/6 325/2/6
f 325/2/6 324/2/6 326/2/6
f 327/2/6 328/2/6 329/2/6
f 329/2/6 328/2/6 330/2/6
f 327/2/6 329/2/6 331/2/6
f 330/2/6 328/2/6 332/2/6
f 331/2/6 332/2/6 333/2/6
f 333/2/6 332/2/6 334/2/6
f 331/2/6 333/2/6 335/2/6
f 335/2/6 333/2/6 336/2/6
f 334/2/6 332/2/6 337/2/6
f 337/2/6 332/2/6 338/2/6
f 327/2/6 331/2/6 339/2/6
f 331/2/6 335/2/6 339/2/6
f 339/2/6 335/2/6 340/2/6
f 338/2/6 332/2/6 341/2/6
f 332/2/6 328/2/6 342/2/6
f 341/2/6 332/2/6 342/2/6
f 343/3/6 344/3/6 351/3/6
f 351/3/6 344/3/6 352/3/6
f 345/3/6 346/3/6 353/3/6
f 353/3/6 346/3/6 354/3/6
f 347/3/6 348/3/6 355/3/6
f 355/3/6 348/3/6 356/3/6
f 349/3/6 350/3/6 357/3/6
f 357/3/6 350/3/6 358/3/6
f 359/2/6 360/2/6 363/2/6
f 361/2/6 362/2/6 364/2/6
f 359/2/6 363/2/6 365/2/6
f 363/2/6 364/2/6 365/2/6
f 364/2/6 362/2/6 366/2/6
f 365/2/6 364/2/6 366/2/6
f 367/4/6 368/4/6 369/4/6
f 369/4/6 368/4/6 370/4/6
f 371/2/6 372/2/6 373/2/6
f 373/2/6 372/2/6 374/2/6
f 375/2/6 376/2/6 377/2/6
f 377/2/6 376/2/6 378/2/6
f 379/2/6 380/2/6 383/2/6
f 381/2/6 382/2/6 384/2/6
f 384/2/6 382/2/6 385/2/6
f 385/2/6 382/2/6 386/2/6
f 379/2/6 383/2/6 387/2/6
f 383/2/6 384/2/6 387/2/6
f 384/2/6 385/2/6 387/2/6
f 387/2/6 385/2/6 388/2/6
